<?xml version="1.0" standalone="no"?>
<!DOCTYPE svg PUBLIC "-//W3C//DTD SVG 20010904//EN"
 "http://www.w3.org/TR/2001/REC-SVG-20010904/DTD/svg10.dtd">
<svg version="1.0" xmlns="http://www.w3.org/2000/svg"
 width="96.000000pt" height="96.000000pt" viewBox="0 0 96.000000 96.000000"
 preserveAspectRatio="xMidYMid meet">
<metadata>
Created by potrace 1.11, written by Peter Selinger 2001-2013
</metadata>
<g transform="translate(0.000000,96.000000) scale(0.100000,-0.100000)"
fill="#000000" stroke="none">
<path d="M172 828 c-7 -7 -12 -20 -12 -30 0 -13 -8 -18 -28 -18 -15 0 -33 -5
-40 -12 -17 -17 -17 -539 0 -556 8 -8 45 -12 100 -12 l88 0 0 -85 c0 -72 2
-85 16 -85 10 0 55 38 101 85 l84 85 178 0 c191 0 201 3 201 52 0 20 5 28 18
28 40 0 42 15 42 280 0 186 -3 259 -12 268 -17 17 -719 17 -736 0z"/>
</g>
</svg>
